HIERARCHY
ROOT Pelvis
{
	OFFSET 0.000000 0.000000 0.000000
	CHANNELS 6 Xposition Yposition Zposition Xrotation Yrotation Zrotation
	JOINT LeftUpLeg_virtual
	{
		OFFSET 0.000000 0.000000 0.000000
		CHANNELS 3 Xrotation Yrotation Zrotation
		JOINT LeftUpLeg
		{
			OFFSET 18.735201 -5.666702 -4.541200
			CHANNELS 3 Xrotation Yrotation Zrotation
			JOINT LeftLeg
			{
				OFFSET -0.021200 -31.938179 0.493100
				CHANNELS 3 Xrotation Yrotation Zrotation
				JOINT LeftFoot
				{
					OFFSET 0.021200 -31.938179 -4.336299
					CHANNELS 3 Xrotation Yrotation Zrotation
					JOINT LeftToeBase
					{
						OFFSET 0.943001 -26.722000 15.023500
						CHANNELS 3 Xrotation Yrotation Zrotation
						End Site
						{
							OFFSET 0 0 0
						}
					}
				}
			}
		}
	}
	JOINT RightUpLeg_virtual
	{
		OFFSET 0.000000 0.000000 0.000000
		CHANNELS 3 Xrotation Yrotation Zrotation
		JOINT RightUpLeg
		{
			OFFSET -18.735201 -5.666702 -4.541200
			CHANNELS 3 Xrotation Yrotation Zrotation
			JOINT RightLeg
			{
				OFFSET 0.018946 -31.938133 0.493100
				CHANNELS 3 Xrotation Yrotation Zrotation
				JOINT RightFoot
				{
					OFFSET -0.018946 -31.938126 -4.336299
					CHANNELS 3 Xrotation Yrotation Zrotation
					JOINT RightToeBase
					{
						OFFSET -0.943001 -26.722004 15.023500
						CHANNELS 3 Xrotation Yrotation Zrotation
						End Site
						{
							OFFSET 0 0 0
						}
					}
				}
			}
		}
	}
	JOINT Hips_virtual
	{
		OFFSET 0.000000 0.000000 0.000000
		CHANNELS 3 Xrotation Yrotation Zrotation
		JOINT Hips
		{
			OFFSET -0.000000 -0.000000 -0.000000
			CHANNELS 3 Xrotation Yrotation Zrotation
			JOINT Spine
			{
				OFFSET 0.000000 10.199997 -0.299500
				CHANNELS 3 Xrotation Yrotation Zrotation
				JOINT Spine1
				{
					OFFSET 0.000000 11.900002 -1.516600
					CHANNELS 3 Xrotation Yrotation Zrotation
					JOINT Spine2
					{
						OFFSET 0.000000 13.600006 -2.842500
						CHANNELS 3 Xrotation Yrotation Zrotation
						JOINT Neck_virtual
						{
							OFFSET 0.000000 0.000000 0.000000
							CHANNELS 3 Xrotation Yrotation Zrotation
							JOINT Neck
							{
								OFFSET 0.000000 9.624100 -2.890100
								CHANNELS 3 Xrotation Yrotation Zrotation
								JOINT Head
								{
									OFFSET 0.000000 14.068802 -1.351900
									CHANNELS 3 Xrotation Yrotation Zrotation
									End Site
									{
										OFFSET 0 0 0
									}
								}
							}
						}
						JOINT LeftShoulder_virtual
						{
							OFFSET 0.000000 0.000000 0.000000
							CHANNELS 3 Xrotation Yrotation Zrotation
							JOINT LeftShoulder
							{
								OFFSET 15.263000 10.923401 -0.547700
								CHANNELS 3 Xrotation Yrotation Zrotation
								JOINT LeftArm
								{
									OFFSET 25.438599 -2.830597 -13.032500
									CHANNELS 3 Xrotation Yrotation Zrotation
									JOINT LeftForeArm
									{
										OFFSET 29.960503 0.000000 0.000000
										CHANNELS 3 Xrotation Yrotation Zrotation
										JOINT LeftHand
										{
											OFFSET 27.849251 0.000000 0.000000
											CHANNELS 3 Xrotation Yrotation Zrotation
											End Site
											{
												OFFSET 0 0 0
											}
										}
									}
								}
							}
						}
						JOINT RightShoulder_virtual
						{
							OFFSET 0.000000 0.000000 0.000000
							CHANNELS 3 Xrotation Yrotation Zrotation
							JOINT RightShoulder
							{
								OFFSET -15.263000 10.923401 -0.547700
								CHANNELS 3 Xrotation Yrotation Zrotation
								JOINT RightArm
								{
									OFFSET -25.438599 -2.830597 -13.032500
									CHANNELS 3 Xrotation Yrotation Zrotation
									JOINT RightForeArm
									{
										OFFSET -29.960503 0.000000 0.000000
										CHANNELS 3 Xrotation Yrotation Zrotation
										JOINT RightHand
										{
											OFFSET -27.849251 0.000000 0.000000
											CHANNELS 3 Xrotation Yrotation Zrotation
											End Site
											{
												OFFSET 0 0 0
											}
										}
									}
								}
							}
						}
					}
				}
			}
		}
	}
}
MOTION
Frames: 9
Frame Time: 0.03333333
-0.322236 89.905159 1.183486 0.000000 0.000000 0.000000 3.367801 -25.045028 -0.046343 -37.533194 4.102259 15.073881 41.590060 2.978645 -0.852218 -7.252110 3.279457 -4.600719 0.000000 0.000000 0.000000 7.438991 -17.530121 1.620911 -21.331255 -10.201159 -15.280508 31.961758 -0.465577 0.467524 -17.798662 -4.860722 11.466769 0.000000 0.000000 0.000000 2.443353 -6.029603 0.223502 10.777870 -4.617797 -0.197299 14.898447 3.341683 -1.457449 7.225004 2.083609 -0.910623 0.000000 0.000000 0.000000 0.113093 1.777463 -0.855219 -1.370982 0.585713 0.154947 0.000000 0.000000 0.000000 5.907652 -0.009294 -0.382064 4.558782 -12.554581 0.513629 -26.743473 -12.967394 -63.706083 -10.266256 -61.944488 -16.368139 0.000000 0.000000 0.000000 5.646801 2.772378 -2.863634 6.985827 19.217564 -9.163780 -32.450215 20.770416 65.814146 -47.849266 75.221474 54.417715 0.000000 0.000000 0.000000 
-0.300043 89.890907 1.171602 0.000000 0.000000 0.000000 3.366929 -25.168871 -0.002532 -37.552080 4.054635 15.112495 41.658034 2.996336 -0.868710 -7.186769 3.306175 -4.623687 0.000000 0.000000 0.000000 7.459722 -17.458638 1.588547 -21.277272 -10.179583 -15.297199 31.832213 -0.450887 0.512857 -17.896033 -4.877242 11.531627 0.000000 0.000000 0.000000 2.426797 -6.036128 0.239756 10.677173 -4.375233 -0.192568 15.009974 3.357401 -1.439902 7.295484 2.094501 -0.873810 0.000000 0.000000 0.000000 0.060811 1.818845 -0.853358 -1.368892 0.602341 0.133975 0.000000 0.000000 0.000000 5.920366 -0.025154 -0.371512 4.617722 -12.743754 0.565710 -26.947868 -12.998183 -63.747426 -10.341097 -61.932330 -16.606886 0.000000 0.000000 0.000000 5.616118 2.785815 -2.865787 7.068562 19.266190 -9.324859 -32.487785 20.707042 65.754224 -46.575169 74.907532 53.176216 0.000000 0.000000 0.000000 
-0.261747 89.863091 1.146788 0.000000 0.000000 0.000000 3.363301 -25.403359 0.075676 -37.589031 3.965448 15.180727 41.781135 3.036165 -0.899183 -7.069593 3.363123 -4.661346 0.000000 0.000000 0.000000 7.503083 -17.339321 1.534854 -21.174082 -10.145227 -15.323997 31.598689 -0.418988 0.597451 -18.069139 -4.902773 11.655770 0.000000 0.000000 0.000000 2.398237 -6.068501 0.272125 10.476868 -3.916012 -0.218508 15.207894 3.390593 -1.401536 7.423796 2.112823 -0.804971 0.000000 0.000000 0.000000 -0.038873 1.898935 -0.850991 -1.363484 0.633679 0.093927 0.000000 0.000000 0.000000 5.943162 -0.054322 -0.357492 4.722796 -13.095406 0.645226 -27.306982 -13.054831 -63.801760 -10.459234 -61.903787 -17.033233 0.000000 0.000000 0.000000 5.556529 2.808078 -2.866725 7.217980 19.349617 -9.617156 -32.526334 20.619460 65.627019 -44.162750 74.291906 50.836958 0.000000 0.000000 0.000000 
-0.217739 89.823524 1.108717 0.000000 0.000000 0.000000 3.355216 -25.723949 0.173176 -37.640886 3.845647 15.264103 41.938724 3.103974 -0.939844 -6.922527 3.454780 -4.701529 0.000000 0.000000 0.000000 7.570731 -17.209823 1.477150 -21.031223 -10.111830 -15.350736 31.308139 -0.365579 0.708991 -18.278956 -4.923274 11.826753 0.000000 0.000000 0.000000 2.366295 -6.153476 0.321241 10.184358 -3.285562 -0.323447 15.453653 3.442701 -1.338206 7.588163 2.132824 -0.712028 0.000000 0.000000 0.000000 -0.175750 2.012225 -0.849969 -1.353105 0.676386 0.038254 0.000000 0.000000 0.000000 5.972142 -0.092208 -0.350135 4.852790 -13.562143 0.714565 -27.741824 -13.129048 -63.823432 -10.570942 -61.849754 -17.561922 0.000000 0.000000 0.000000 5.471077 2.831547 -2.860702 7.406348 19.444736 -9.988215 -32.506257 20.570585 65.421300 -40.866169 73.398804 47.662310 0.000000 0.000000 0.000000 
-0.179756 89.775787 1.060239 0.000000 0.000000 0.000000 3.343504 -26.098199 0.274519 -37.700786 3.708981 15.347814 42.109814 3.202718 -0.987334 -6.768295 3.582920 -4.734373 0.000000 0.000000 0.000000 7.661661 -17.106258 1.432139 -20.862126 -10.092042 -15.367909 31.021083 -0.285785 0.829495 -18.476768 -4.920298 12.024542 0.000000 0.000000 0.000000 2.342328 -6.308883 0.389251 9.819726 -2.539223 -0.538519 15.711558 3.512136 -1.248410 7.763395 2.148387 -0.603727 0.000000 0.000000 0.000000 -0.334761 2.150438 -0.851662 -1.336830 0.726584 -0.028733 0.000000 0.000000 0.000000 6.004033 -0.132965 -0.357203 4.984738 -14.084461 0.738845 -28.171921 -13.212383 -63.766277 -10.626512 -61.756344 -18.098657 0.000000 0.000000 0.000000 5.363279 2.848183 -2.841315 7.601557 19.526720 -10.375731 -32.366999 20.623036 65.126523 -37.024137 72.266844 43.989171 0.000000 0.000000 0.000000 
-0.157705 89.725197 1.008757 0.000000 0.000000 0.000000 3.331911 -26.490571 0.367987 -37.758877 3.569557 15.420670 42.278635 3.329516 -1.039864 -6.624221 3.743989 -4.756671 0.000000 0.000000 0.000000 7.771363 -17.048210 1.410400 -20.681775 -10.092188 -15.369809 30.800089 -0.175440 0.937757 -18.614116 -4.874404 12.223599 0.000000 0.000000 0.000000 2.337421 -6.532625 0.479029 9.417894 -1.734079 -0.858564 15.960484 3.593015 -1.136112 7.926838 2.154925 -0.487863 0.000000 0.000000 0.000000 -0.498761 2.303299 -0.856712 -1.315322 0.780903 -0.102786 0.000000 0.000000 0.000000 6.037638 -0.170243 -0.380688 5.099952 -14.598769 0.696402 -28.536510 -13.300748 -63.599095 -10.589965 -61.608634 -18.562279 0.000000 0.000000 0.000000 5.236214 2.852090 -2.803451 7.774864 19.576897 -10.722046 -32.069350 20.816158 64.736369 -33.006534 70.955844 40.169039 0.000000 0.000000 0.000000 
-0.157354 89.677948 0.965498 0.000000 0.000000 0.000000 3.325249 -26.867838 0.447063 -37.805063 3.439474 15.476662 42.436416 3.475758 -1.097339 -6.499695 3.929091 -4.772333 0.000000 0.000000 0.000000 7.893045 -17.031492 1.414407 -20.503528 -10.110134 -15.355404 30.696598 -0.032246 1.013639 -18.653037 -4.769469 12.398114 0.000000 0.000000 0.000000 2.357674 -6.804443 0.591578 9.023545 -0.923337 -1.244106 16.196185 3.676649 -1.011365 8.062901 2.150532 -0.370696 0.000000 0.000000 0.000000 -0.652770 2.460089 -0.865620 -1.290884 0.837288 -0.180544 0.000000 0.000000 0.000000 6.074093 -0.197851 -0.417082 5.187166 -15.044571 0.580084 -28.802621 -13.398963 -63.314870 -10.444673 -61.398087 -18.898143 0.000000 0.000000 0.000000 5.092289 2.841103 -2.745028 7.906919 19.588078 -10.986670 -31.610163 21.153550 64.251364 -29.147989 69.550792 36.503748 0.000000 0.000000 0.000000 
-0.179953 89.639397 0.942559 0.000000 0.000000 0.000000 3.326906 -27.204302 0.509814 -37.832032 3.327016 15.514387 42.579912 3.630012 -1.160649 -6.397058 4.126577 -4.789382 0.000000 0.000000 0.000000 8.019774 -17.032275 1.440163 -20.336917 -10.137141 -15.327289 30.739430 0.143332 1.042709 -18.574042 -4.596703 12.528056 0.000000 0.000000 0.000000 2.399828 -7.099188 0.722920 8.679741 -0.152571 -1.640959 16.425582 3.755084 -0.888212 8.165122 2.135985 -0.257229 0.000000 0.000000 0.000000 -0.787560 2.611487 -0.879457 -1.266675 0.895192 -0.259839 0.000000 0.000000 0.000000 6.115992 -0.210363 -0.460421 5.242572 -15.371887 0.392563 -28.963786 -13.522733 -62.931676 -10.193128 -61.130350 -19.082196 0.000000 0.000000 0.000000 4.933961 2.816855 -2.668032 7.990539 19.565473 -11.153187 -31.023641 21.605080 63.680313 -25.689957 68.153280 33.197451 0.000000 0.000000 0.000000 
-0.223922 89.612389 0.948824 0.000000 0.000000 0.000000 3.337940 -27.485497 0.557968 -37.836413 3.235664 15.535947 42.709405 3.782117 -1.230724 -6.313547 4.325807 -4.815664 0.000000 0.000000 0.000000 8.146104 -17.020941 1.481176 -20.187384 -10.162721 -15.289532 30.929392 0.347533 1.019103 -18.379170 -4.356954 12.603033 0.000000 0.000000 0.000000 2.450383 -7.403020 0.862653 8.415497 0.543365 -2.003900 16.658253 3.824418 -0.780427 8.235475 2.113775 -0.151605 0.000000 0.000000 0.000000 -0.900501 2.750810 -0.899903 -1.245502 0.954997 -0.339320 0.000000 0.000000 0.000000 6.166085 -0.203865 -0.505618 5.268095 -15.548323 0.141943 -29.034427 -13.695874 -62.485426 -9.853298 -60.827602 -19.117145 0.000000 0.000000 0.000000 4.765126 2.783510 -2.578392 8.029687 19.523488 -11.228781 -30.369190 22.120386 63.039600 -22.756097 66.859438 30.344116 0.000000 0.000000 0.000000 
